<svg width="22" height="20" viewBox="0 0 22 20" fill="none" xmlns="http://www.w3.org/2000/svg">
<path fill-rule="evenodd" clip-rule="evenodd" d="M10.9929 1.71698C8.65298 -0.327903 5.19252 -0.74636 2.50521 1.54973C-0.401577 4.03336 -0.823907 8.21616 1.47471 11.174C2.34724 12.2968 4.05023 13.9836 5.68684 15.5283C7.34261 17.0912 8.99457 18.568 9.80923 19.2895C9.81432 19.294 9.81951 19.2986 9.82478 19.3032C9.90137 19.3711 9.99671 19.4556 10.0881 19.5244C10.1975 19.6069 10.3547 19.7092 10.5645 19.7718C10.8434 19.855 11.1432 19.855 11.4221 19.7718C11.6319 19.7092 11.789 19.6069 11.8984 19.5244C11.9898 19.4556 12.0852 19.3711 12.1618 19.3032C12.167 19.2986 12.1722 19.294 12.1773 19.2895C12.992 18.568 14.6439 17.0912 16.2997 15.5283C17.9363 13.9836 19.6393 12.2968 20.5118 11.174C22.8016 8.22753 22.4445 4.01246 19.4709 1.54096C16.7537 -0.717465 13.3301 -0.328681 10.9929 1.71698Z" fill="#7990F8"/>
</svg>
