<svg width="22" height="20" viewBox="0 0 22 20" fill="none" xmlns="http://www.w3.org/2000/svg">
<path fill-rule="evenodd" clip-rule="evenodd" d="M7.97068e-07 4.16167C-1.61995e-05 3.63454 -3.08603e-05 3.17975 0.0305721 2.80519C0.0628731 2.40984 0.134189 2.01662 0.326983 1.63824C0.614603 1.07376 1.07354 0.614816 1.63803 0.327196C2.01641 0.134402 2.40963 0.0630857 2.80497 0.0307847C3.17955 0.000181042 3.63431 0.000196468 4.16145 0.000214349L8.14666 0.000106346C8.74022 -0.000677455 9.2622 -0.00136684 9.74215 0.16418C10.1625 0.309176 10.5454 0.545811 10.8631 0.856961C11.2258 1.21221 11.4586 1.67939 11.7234 2.21064L12.6179 4H16.2413C17.0463 3.99999 17.7106 3.99998 18.2518 4.04419C18.8139 4.09012 19.3306 4.18868 19.816 4.43598C20.5686 4.81947 21.1805 5.43139 21.564 6.18404C21.8113 6.66937 21.9099 7.18608 21.9558 7.74817C22 8.28936 22 8.95372 22 9.75868V14.2413C22 15.0463 22 15.7106 21.9558 16.2518C21.9099 16.8139 21.8113 17.3306 21.564 17.816C21.1805 18.5686 20.5686 19.1805 19.816 19.564C19.3306 19.8113 18.8139 19.9099 18.2518 19.9558C17.7106 20 17.0463 20 16.2413 20H5.75873C4.95376 20 4.28937 20 3.74818 19.9558C3.18608 19.9099 2.66938 19.8113 2.18404 19.564C1.43139 19.1805 0.819469 18.5686 0.435976 17.816C0.188685 17.3306 0.0901206 16.8139 0.0441954 16.2518C-2.16514e-05 15.7106 -1.15016e-05 15.0463 7.97068e-07 14.2413V4.16167ZM8.02229 2.00022C8.81271 2.00022 8.96938 2.01326 9.09001 2.05487C9.23013 2.1032 9.35776 2.18208 9.46365 2.2858C9.55482 2.37508 9.63655 2.50938 9.99003 3.21635L10.3819 4L2.00007 4C2.00052 3.53501 2.00358 3.21716 2.02393 2.96805C2.04613 2.69639 2.0838 2.59567 2.109 2.54622C2.20487 2.35806 2.35785 2.20508 2.54601 2.10921C2.59546 2.08402 2.69618 2.04634 2.96784 2.02414C3.25118 2.00099 3.62345 2.00022 4.2 2.00022H8.02229Z" fill="#908986"/>
</svg>
