<svg width="18" height="22" viewBox="0 0 18 22" fill="none" xmlns="http://www.w3.org/2000/svg">
<path fill-rule="evenodd" clip-rule="evenodd" d="M13.8385 7.97062e-07H4.16146C3.63433 -1.61994e-05 3.17954 -3.08603e-05 2.80497 0.0305721C2.40963 0.0628731 2.01641 0.134189 1.63803 0.326983C1.07354 0.614603 0.614603 1.07354 0.326983 1.63803C0.134189 2.01641 0.062873 2.40963 0.030572 2.80497C-3.10745e-05 3.17954 -1.63101e-05 3.63429 8.05439e-07 4.16142V17.8385C-1.63101e-05 18.3657 -3.10745e-05 18.8205 0.030572 19.195C0.062873 19.5904 0.134189 19.9836 0.326983 20.362C0.614603 20.9265 1.07354 21.3854 1.63803 21.673C2.01641 21.8658 2.40963 21.9371 2.80497 21.9694C3.17954 22 3.6343 22 4.16144 22H13.8386C14.3657 22 14.8205 22 15.195 21.9694C15.5904 21.9371 15.9836 21.8658 16.362 21.673C16.9265 21.3854 17.3854 20.9265 17.673 20.362C17.8658 19.9836 17.9371 19.5904 17.9694 19.195C18 18.8205 18 18.3657 18 17.8386V4.16144C18 3.6343 18 3.17954 17.9694 2.80497C17.9371 2.40963 17.8658 2.01641 17.673 1.63803C17.3854 1.07354 16.9265 0.614603 16.362 0.326983C15.9836 0.134189 15.5904 0.0628731 15.195 0.0305721C14.8205 -3.08603e-05 14.3657 -1.61994e-05 13.8385 7.97062e-07ZM9 15C8.17157 15 7.5 15.6716 7.5 16.5C7.5 17.3284 8.17157 18 9 18C9.82843 18 10.5 17.3284 10.5 16.5C10.5 15.6716 9.82843 15 9 15Z" fill="#46CF8B"/>
</svg>
