<svg width="23" height="22" viewBox="0 0 23 22" fill="none" xmlns="http://www.w3.org/2000/svg">
<path fill-rule="evenodd" clip-rule="evenodd" d="M16.5354 1.30596C15.5778 0.195073 14.0109 -0.327148 12.4497 0.417862C10.6347 1.28403 9.84096 3.36405 10.6109 5.19116C10.9983 6.11027 12.0462 7.7866 12.7372 8.86022C12.7426 8.86856 12.7479 8.8769 12.7533 8.88524C12.87 9.06656 12.9876 9.24943 13.1023 9.39907C13.2323 9.56862 13.3978 9.74982 13.6327 9.89595C13.9645 10.1024 14.3648 10.2097 14.7554 10.1968C15.0319 10.1877 15.2658 10.1135 15.4632 10.0317C15.6373 9.95942 15.8306 9.85988 16.0223 9.76118C16.0312 9.75664 16.04 9.7521 16.0488 9.74756C17.184 9.16327 18.9297 8.2355 19.7247 7.63319C21.2936 6.44455 21.6915 4.23787 20.5111 2.56882C19.5176 1.16393 17.918 0.82261 16.5354 1.30596Z" fill="#BC5EAD"/>
<path d="M16.7089 14.8933C16.7089 15.6846 16.1855 16.3538 15.464 16.5775L15.9279 16.556C16.4349 16.556 16.9279 16.3966 17.333 16.1004L20.1619 14.0366C20.8679 13.5217 21.8561 13.5901 22.4802 14.1972C23.1734 14.8715 23.1734 15.9638 22.4802 16.6369L20.053 18.9981C19.3996 19.6336 18.5659 20.0676 17.6597 20.2441L14.229 20.9116C13.5487 21.0437 12.8473 21.0278 12.1741 20.8637L9.07119 20.1097C8.70002 20.0186 8.31948 19.973 7.9366 19.973C7.5301 19.973 7.32685 19.973 7.16378 19.9148C6.88133 19.814 6.65906 19.5917 6.55822 19.3093C6.5 19.1462 6.5 18.9429 6.5 18.5365V15.1073C6.5 14.8215 6.5 14.6786 6.5367 14.5469C6.56921 14.4302 6.62265 14.3204 6.69441 14.2228C6.77541 14.1127 6.88788 14.0245 7.11281 13.8482L8.2984 12.9186C8.2984 12.9186 10.2632 12 11.3486 12C11.7982 12 12.2455 12.0547 12.6822 12.163L15.3659 12.8301C16.1551 13.0258 16.7089 13.7313 16.7089 14.5405V14.8933Z" fill="#BC5EAD"/>
<path fill-rule="evenodd" clip-rule="evenodd" d="M2.47354 12C2.48235 12 2.49117 12 2.5 12C2.50884 12 2.51766 12 2.52648 12C2.73652 12 2.94115 11.9999 3.11523 12.0118C3.3056 12.0248 3.53133 12.0553 3.76537 12.1522C4.25543 12.3552 4.64477 12.7446 4.84776 13.2346C4.94471 13.4687 4.97518 13.6944 4.98817 13.8848C5.00005 14.0588 5.00003 14.2635 5.00001 14.4735C5 14.4823 5 14.4912 5 14.5L5.00001 19.5265C5.00003 19.7365 5.00005 19.9411 4.98817 20.1152C4.97518 20.3056 4.94471 20.5313 4.84776 20.7654C4.64477 21.2554 4.25543 21.6448 3.76537 21.8477C3.53133 21.9447 3.3056 21.9752 3.11523 21.9882C2.94115 22 2.73653 22 2.52648 22H2.47352C2.26348 22 2.05886 22 1.88478 21.9882C1.6944 21.9752 1.46868 21.9447 1.23464 21.8477C0.74458 21.6448 0.355232 21.2554 0.152244 20.7654C0.0553006 20.5313 0.024827 20.3056 0.011838 20.1152C-3.96064e-05 19.9411 -1.92219e-05 19.7365 1.75898e-06 19.5265L3.48752e-06 14.5C3.48752e-06 14.4912 2.59345e-06 14.4823 1.75898e-06 14.4735C-1.92219e-05 14.2635 -3.96064e-05 14.0588 0.011838 13.8848C0.024827 13.6944 0.0553007 13.4687 0.152245 13.2346C0.355233 12.7446 0.744581 12.3552 1.23464 12.1522C1.46868 12.0553 1.69441 12.0248 1.88478 12.0118C2.05886 11.9999 2.26349 12 2.47354 12Z" fill="#BC5EAD"/>
</svg>
